<svg width="64" height="64" viewBox="0 0 64 64" fill="none" xmlns="http://www.w3.org/2000/svg">
<path d="M20.56 10.56L14 17.126L11.44 14.566L8.56 17.44L12.56 21.44L14 22.812L15.44 21.438L23.44 13.438L20.56 10.558V10.56ZM30 14V18H56V14H30ZM20.56 26.56L14 33.128L11.44 30.56L8.56 33.44L12.56 37.44L14 38.812L15.44 37.438L23.44 29.438L20.56 26.558V26.56ZM30 30V34H56V30H30ZM20.56 42.56L14 49.126L11.44 46.566L8.56 49.44L12.56 53.44L14 54.812L15.44 53.438L23.44 45.438L20.56 42.558V42.56ZM30 46V50H56V46H30Z" fill="#4ECB71"/>
</svg>
